<?xml version="1.0" encoding="UTF-8" standalone="no"?>
<svg
   xmlns:dc="http://purl.org/dc/elements/1.1/"
   xmlns:cc="http://creativecommons.org/ns#"
   xmlns:rdf="http://www.w3.org/1999/02/22-rdf-syntax-ns#"
   xmlns:svg="http://www.w3.org/2000/svg"
   xmlns="http://www.w3.org/2000/svg"
   viewBox="0 0 192 192"
   height="192"
   width="192"
   xml:space="preserve"
   id="svg2"
   version="1.1"><metadata
     id="metadata8"><rdf:RDF><cc:Work
         rdf:about=""><dc:format>image/svg+xml</dc:format><dc:type
           rdf:resource="http://purl.org/dc/dcmitype/StillImage" /></cc:Work></rdf:RDF></metadata><defs
     id="defs6"><clipPath
       id="clipPath18"
       clipPathUnits="userSpaceOnUse"><path
         id="path16"
         d="M 0,144 H 144 V 0 H 0 Z" /></clipPath></defs><g
     transform="matrix(1.3333333,0,0,-1.3333333,0,192)"
     id="g10"><g
       id="g12"><g
         clip-path="url(#clipPath18)"
         id="g14"><g
           transform="translate(87.5052,70.4907)"
           id="g20"><path
             id="path22"
             style="fill:#221f1f;fill-opacity:1;fill-rule:nonzero;stroke:none"
             d="m 0,0 c -2.718,0 -4.922,-2.226 -4.922,-4.983 0,-2.751 2.204,-4.983 4.922,-4.983 2.716,0 4.925,2.232 4.925,4.983 C 4.925,-2.226 2.716,0 0,0" /></g><g
           transform="translate(93.4578,30.7556)"
           id="g24"><path
             id="path26"
             style="fill:#000000;fill-opacity:1;fill-rule:nonzero;stroke:none"
             d="M 0,0 -2.556,20.047 H -9.323 L -11.876,0 h -11.863 l 10.882,82.496 H 0.825 L 11.782,0 Z m -26.43,55.265 h -11.214 v 12.462 c 0,0.39 -0.055,0.844 -0.157,1.375 -0.113,0.53 -0.295,1.017 -0.563,1.465 -0.274,0.441 -0.637,0.818 -1.094,1.126 -0.454,0.306 -1.062,0.452 -1.817,0.452 -0.058,0 -0.102,-0.005 -0.164,-0.011 v 0.011 c -0.751,0 -1.354,-0.146 -1.812,-0.452 -0.453,-0.308 -0.819,-0.685 -1.087,-1.126 -0.271,-0.448 -0.461,-0.935 -0.563,-1.465 -0.112,-0.531 -0.167,-0.985 -0.167,-1.375 V 13.68 c 0,-0.781 0.192,-1.534 0.565,-2.251 0.373,-0.728 1.265,-1.086 2.66,-1.086 1.073,0 1.956,0.293 2.652,0.875 0.702,0.583 1.047,1.35 1.047,2.292 v 15.613 h -3.793 v 9.922 H -26.93 V 14.103 c 0,-4.792 -1.263,-8.418 -3.791,-10.894 -2.529,-2.475 -6.098,-3.716 -10.718,-3.716 -5.168,0 -8.925,1.228 -11.293,3.679 -2.362,2.443 -3.543,6.116 -3.543,11.008 v 53.547 c 0,4.618 1.279,8.316 3.831,11.098 2.556,2.782 6.251,4.17 11.093,4.17 4.832,0 8.527,-1.388 11.088,-4.17 2.556,-2.782 3.833,-6.48 3.833,-11.098 z M 43.525,41.238 c -0.005,2.815 2.246,5.091 5.026,5.098 -0.199,2.841 -0.561,5.642 -1.075,8.4 l -0.014,-0.007 c -2.685,-0.73 -5.443,0.888 -6.166,3.602 -0.719,2.717 0.88,5.506 3.557,6.242 h 0.023 c -0.918,2.68 -1.993,5.298 -3.205,7.824 L 41.657,72.39 c -2.41,-1.407 -5.481,-0.576 -6.875,1.861 -1.393,2.438 -0.566,5.552 1.844,6.966 -1.562,2.341 -3.268,4.579 -5.094,6.71 -1.967,-1.983 -5.149,-1.983 -7.114,0 -1.967,1.983 -1.967,5.214 0,7.21 -2.111,1.841 -4.324,3.569 -6.635,5.154 v -0.006 c -1.395,-2.43 -4.469,-3.274 -6.871,-1.861 -2.41,1.407 -3.237,4.518 -1.847,6.953 l 0.005,0.013 c -2.495,1.233 -5.075,2.316 -7.728,3.244 v -0.013 c -0.721,-2.719 -3.486,-4.331 -6.165,-3.602 -2.683,0.723 -4.277,3.518 -3.563,6.237 l 0.006,0.011 c -2.711,0.526 -5.482,0.897 -8.296,1.103 0,-2.821 -2.255,-5.099 -5.026,-5.099 -2.784,0 -5.036,2.278 -5.036,5.099 -2.818,-0.206 -5.582,-0.577 -8.294,-1.103 v -0.011 c 0.721,-2.713 -0.869,-5.514 -3.557,-6.237 -2.686,-0.729 -5.443,0.883 -6.162,3.602 v 0.02 c -2.662,-0.935 -5.242,-2.018 -7.738,-3.251 l 0.007,-0.006 c 1.389,-2.442 0.563,-5.553 -1.839,-6.96 -2.411,-1.413 -5.486,-0.569 -6.872,1.861 l -0.007,0.006 c -2.312,-1.585 -4.526,-3.313 -6.634,-5.154 1.97,-1.996 1.965,-5.22 0.006,-7.203 -1.972,-1.99 -5.155,-1.99 -7.118,-0.007 v 0.007 c -1.829,-2.138 -3.532,-4.376 -5.099,-6.717 h 0.007 c 2.404,-1.414 3.229,-4.521 1.841,-6.961 -1.396,-2.442 -4.468,-3.273 -6.872,-1.866 l -0.013,0.007 c -1.219,-2.526 -2.283,-5.144 -3.208,-7.824 h 0.019 c 2.686,-0.731 4.277,-3.525 3.555,-6.236 -0.717,-2.72 -3.479,-4.338 -6.162,-3.601 h -0.005 c -0.519,-2.752 -0.887,-5.552 -1.082,-8.4 2.776,0 5.024,-2.283 5.024,-5.098 0.007,-2.808 -2.248,-5.091 -5.024,-5.091 0.195,-2.848 0.563,-5.65 1.082,-8.394 h 0.005 c 2.683,0.724 5.445,-0.888 6.162,-3.595 0.722,-2.717 -0.869,-5.519 -3.555,-6.243 h -0.019 c 0.915,-2.687 1.989,-5.302 3.208,-7.83 l 0.006,0.007 c 2.411,1.407 5.483,0.57 6.879,-1.867 1.388,-2.438 0.563,-5.546 -1.841,-6.953 h -0.007 c 1.567,-2.348 3.27,-4.586 5.099,-6.723 1.963,1.989 5.146,1.989 7.112,0 1.965,-1.985 1.965,-5.214 0,-7.197 2.108,-1.854 4.322,-3.576 6.634,-5.161 v 0.007 c 1.393,2.436 4.468,3.267 6.879,1.866 2.402,-1.414 3.228,-4.528 1.839,-6.965 l -0.007,-0.015 c 2.496,-1.226 5.076,-2.308 7.731,-3.242 l 0.007,0.02 c 0.719,2.712 3.476,4.331 6.162,3.594 2.681,-0.723 4.271,-3.511 3.557,-6.229 l -0.007,-0.006 c 2.719,-0.533 5.483,-0.903 8.301,-1.103 0,2.815 2.252,5.094 5.031,5.094 2.776,0 5.031,-2.279 5.031,-5.086 v -0.008 c 2.814,0.2 5.578,0.57 8.29,1.103 v 0.006 c -0.714,2.718 0.88,5.506 3.557,6.229 2.685,0.737 5.443,-0.882 6.166,-3.594 l 0.005,-0.02 c 2.653,0.934 5.228,2.016 7.728,3.242 l -0.005,0.015 c -1.39,2.437 -0.563,5.551 1.841,6.958 2.401,1.408 5.482,0.577 6.877,-1.859 v -0.007 c 2.311,1.585 4.524,3.307 6.635,5.155 v 0.006 c -1.967,1.983 -1.967,5.212 0,7.197 1.965,1.989 5.147,1.989 7.114,0 1.826,2.13 3.532,4.368 5.094,6.717 v 0.006 c -2.41,1.402 -3.237,4.515 -1.844,6.953 1.387,2.437 4.465,3.267 6.87,1.867 l 0.019,-0.012 c 1.212,2.533 2.287,5.141 3.205,7.829 l -0.023,0.006 c -2.677,0.724 -4.276,3.519 -3.557,6.231 0.716,2.719 3.481,4.331 6.166,3.607 h 0.014 c 0.514,2.744 0.876,5.546 1.075,8.394 -2.78,0 -5.031,2.283 -5.026,5.091" /></g></g></g></g></svg>