<?xml version="1.0" encoding="UTF-8" standalone="no"?>
<svg
   xmlns:dc="http://purl.org/dc/elements/1.1/"
   xmlns:cc="http://creativecommons.org/ns#"
   xmlns:rdf="http://www.w3.org/1999/02/22-rdf-syntax-ns#"
   xmlns:svg="http://www.w3.org/2000/svg"
   xmlns="http://www.w3.org/2000/svg"
   viewBox="0 0 235.29333 223.52933"
   height="223.52933"
   width="235.29333"
   xml:space="preserve"
   id="svg2"
   version="1.1"><metadata
     id="metadata8"><rdf:RDF><cc:Work
         rdf:about=""><dc:format>image/svg+xml</dc:format><dc:type
           rdf:resource="http://purl.org/dc/dcmitype/StillImage" /></cc:Work></rdf:RDF></metadata><defs
     id="defs6"><clipPath
       id="clipPath18"
       clipPathUnits="userSpaceOnUse"><path
         id="path16"
         d="M 0,167.647 H 176.47 V 0 H 0 Z" /></clipPath></defs><g
     transform="matrix(1.3333333,0,0,-1.3333333,0,223.52933)"
     id="g10"><g
       id="g12"><g
         clip-path="url(#clipPath18)"
         id="g14"><g
           transform="translate(109.6147,42.0537)"
           id="g20"><path
             id="path22"
             style="fill:#ffffff;fill-opacity:1;fill-rule:nonzero;stroke:none"
             d="M 0,0 -2.533,19.494 H -9.232 L -11.763,0 h -11.759 l 10.781,80.2 H 0.817 L 11.678,0 Z m -26.186,53.734 h -11.109 v 12.11 c 0,0.377 -0.053,0.823 -0.16,1.338 -0.105,0.512 -0.293,0.984 -0.559,1.419 -0.268,0.432 -0.627,0.795 -1.08,1.094 -0.45,0.297 -1.052,0.447 -1.798,0.447 -0.055,0 -0.106,-0.01 -0.162,-0.015 v 0.015 c -0.745,0 -1.344,-0.15 -1.796,-0.447 -0.455,-0.299 -0.811,-0.662 -1.08,-1.094 -0.267,-0.435 -0.453,-0.907 -0.561,-1.419 -0.106,-0.515 -0.158,-0.961 -0.158,-1.338 V 13.303 c 0,-0.758 0.184,-1.489 0.559,-2.19 0.37,-0.703 1.248,-1.054 2.634,-1.054 1.06,0 1.939,0.282 2.63,0.851 0.69,0.568 1.039,1.309 1.039,2.232 v 15.169 h -3.758 v 9.649 h 14.863 V 13.709 c 0,-4.652 -1.251,-8.182 -3.757,-10.586 -2.503,-2.407 -6.043,-3.609 -10.618,-3.609 -5.118,0 -8.848,1.188 -11.189,3.568 -2.34,2.38 -3.51,5.947 -3.51,10.708 v 52.054 c 0,4.487 1.266,8.081 3.797,10.787 2.532,2.703 6.192,4.057 10.986,4.057 h 0.003 c 4.791,0 8.452,-1.354 10.985,-4.057 2.531,-2.706 3.799,-6.3 3.799,-10.787 z M 43.129,40.098 c -0.006,2.735 2.23,4.951 4.982,4.954 -0.193,2.769 -0.558,5.492 -1.071,8.163 l -0.01,-0.003 c -2.66,-0.708 -5.393,0.859 -6.104,3.502 -0.715,2.641 0.865,5.353 3.523,6.062 l 0.016,0.005 c -0.909,2.612 -1.968,5.15 -3.174,7.609 l -0.012,-0.009 c -2.386,-1.366 -5.434,-0.554 -6.811,1.813 -1.378,2.366 -0.562,5.395 1.826,6.765 l 0.003,0.002 c -1.553,2.278 -3.239,4.457 -5.048,6.528 l -0.002,-0.002 c -1.948,-1.932 -5.102,-1.932 -7.05,0 -1.949,1.933 -1.948,5.069 -0.002,7.005 h 0.002 c -2.087,1.797 -4.28,3.472 -6.574,5.016 L 17.62,97.501 c -1.378,-2.369 -4.426,-3.179 -6.807,-1.812 -2.387,1.366 -3.203,4.394 -1.827,6.766 l 0.006,0.011 c -2.474,1.196 -5.03,2.249 -7.659,3.152 l -0.002,-0.015 c -0.715,-2.642 -3.449,-4.207 -6.107,-3.501 -2.661,0.705 -4.24,3.422 -3.527,6.064 l 0.003,0.008 c -2.689,0.513 -5.43,0.873 -8.221,1.068 0,-2.736 -2.231,-4.951 -4.983,-4.951 -2.754,0 -4.985,2.215 -4.985,4.951 -2.788,-0.195 -5.532,-0.555 -8.219,-1.068 v -0.008 c 0.714,-2.64 -0.865,-5.356 -3.523,-6.062 -2.663,-0.708 -5.395,0.859 -6.109,3.499 l -10e-4,0.016 c -2.632,-0.904 -5.187,-1.957 -7.665,-3.153 l 0.009,-0.011 c 1.378,-2.369 0.56,-5.397 -1.824,-6.766 -2.384,-1.367 -5.434,-0.557 -6.81,1.814 l -0.002,0.006 c -2.294,-1.545 -4.489,-3.22 -6.576,-5.017 1.95,-1.932 1.949,-5.069 0.002,-7.002 -1.948,-1.935 -5.104,-1.935 -7.05,-10e-4 l -0.003,0.003 c -1.809,-2.074 -3.495,-4.253 -5.049,-6.531 l 0.005,-0.002 c 2.386,-1.366 3.201,-4.396 1.825,-6.762 -1.376,-2.37 -4.424,-3.182 -6.81,-1.813 l -0.013,0.008 c -1.205,-2.46 -2.263,-4.999 -3.175,-7.611 l 0.014,-0.002 c 2.661,-0.709 4.238,-3.423 3.528,-6.063 -0.711,-2.643 -3.446,-4.21 -6.107,-3.501 h -0.006 c -0.516,-2.668 -0.878,-5.394 -1.074,-8.163 2.752,0 4.981,-2.216 4.981,-4.949 0.003,-2.736 -2.228,-4.953 -4.981,-4.953 0.196,-2.77 0.558,-5.493 1.072,-8.163 h 0.008 c 2.658,0.71 5.394,-0.859 6.104,-3.498 0.713,-2.641 -0.864,-5.357 -3.525,-6.065 l -0.014,-0.005 c 0.91,-2.609 1.97,-5.148 3.174,-7.607 l 0.011,0.006 c 2.386,1.369 5.437,0.556 6.812,-1.811 1.377,-2.367 0.562,-5.397 -1.824,-6.764 l -0.005,-0.005 c 1.553,-2.276 3.24,-4.455 5.049,-6.525 1.949,1.934 5.105,1.933 7.05,0 1.95,-1.934 1.95,-5.068 10e-4,-7.003 l -10e-4,-0.002 c 2.086,-1.797 4.281,-3.471 6.572,-5.014 l 0.005,0.003 c 1.378,2.369 4.427,3.182 6.809,1.816 2.385,-1.367 3.203,-4.397 1.827,-6.765 l -0.009,-0.012 c 2.474,-1.197 5.033,-2.251 7.661,-3.154 l 0.004,0.017 c 0.715,2.64 3.447,4.207 6.105,3.5 2.661,-0.708 4.24,-3.423 3.528,-6.064 l -0.003,-0.01 c 2.689,-0.51 5.431,-0.871 8.219,-1.065 0.001,2.736 2.233,4.951 4.984,4.949 2.754,0.002 4.987,-2.213 4.987,-4.946 v -0.003 c 2.789,0.194 5.53,0.555 8.218,1.065 l -10e-4,0.007 c -0.712,2.644 0.865,5.359 3.525,6.065 2.659,0.709 5.392,-0.86 6.106,-3.498 l 0.006,-0.018 c 2.628,0.904 5.183,1.955 7.658,3.152 l -0.006,0.014 c -1.378,2.368 -0.56,5.396 1.823,6.763 2.384,1.367 5.434,0.556 6.812,-1.813 l 0.003,-0.005 c 2.292,1.542 4.487,3.218 6.572,5.015 v 10e-4 c -1.947,1.937 -1.947,5.071 0,7 1.947,1.938 5.102,1.938 7.051,0.005 l 0.001,-0.005 c 1.809,2.074 3.496,4.253 5.05,6.529 l -0.005,0.004 c -2.386,1.369 -3.202,4.396 -1.824,6.762 1.374,2.369 4.424,3.181 6.809,1.815 l 0.011,-0.009 c 1.206,2.46 2.268,4.998 3.177,7.607 l -0.016,0.006 c -2.66,0.71 -4.238,3.423 -3.525,6.062 0.711,2.644 3.446,4.211 6.105,3.503 l 0.011,-0.002 c 0.513,2.67 0.876,5.394 1.071,8.161 -2.752,0.004 -4.988,2.22 -4.982,4.952" /></g><g
           transform="translate(103.6948,80.6845)"
           id="g24"><path
             id="path26"
             style="fill:#ffffff;fill-opacity:1;fill-rule:nonzero;stroke:none"
             d="m 0,0 c -2.692,0 -4.879,-2.169 -4.879,-4.844 0,-2.675 2.187,-4.844 4.879,-4.844 2.691,0 4.877,2.169 4.877,4.844 C 4.877,-2.169 2.691,0 0,0" /></g></g></g></g></svg>